# xmcd
#
# Track frame offsets:
# 150
# 20645
# 37800
# 55025
# 69827
# 90147
# 106292
# 128692
# 150982
# 168170
#
# Disc length: 2520 seconds
#
# Revision: 6
# Processed by: cddbd v1.5.1PL0 Copyright (c) Steve Scherf et al.
# Submitted via: inCDius 2.0b9
#
DISCID=6209d60a
DTITLE=K.D. Lang - Ingénue
DYEAR=1992
DGENRE=Country
TTITLE0=Save Me
TTITLE1=The Mind Of Love
TTITLE2=Miss Chatelaine
TTITLE3=Wash Me Clean
TTITLE4=So It Shall Be
TTITLE5=Still Thrives This Love
TTITLE6=Season Of Hollow Soul
TTITLE7=Outside Myself
TTITLE8=Tears Of Love's Recall
TTITLE9=Constant Craving
EXTD=
EXTT0=
EXTT1=
EXTT2=
EXTT3=
EXTT4=
EXTT5=
EXTT6=
EXTT7=
EXTT8=
EXTT9=
PLAYORDER=
